# xmcd
#
# Track frame offsets: 
#        150
#        13775
#        30807
#        41671
#        58548
#        79384
#        101143
#        125482
#
# Disc length: 1961 seconds
#
# Revision: 0
# Processed by: cddbd v1.5.1PL0 Copyright (c) Steve Scherf et al.
# Submitted via: ExactAudioCopy v0.95a5
#
DISCID=6007a708
DTITLE=Lambchop - Thriller
DYEAR=1997
DGENRE=Country
TTITLE0=My Face Your Ass
TTITLE1=Your Fucking Sunny Day
TTITLE2=Hey, Where's Your Girl?
TTITLE3=Crawl Away
TTITLE4=Gloria Leonard
TTITLE5=Thriller
TTITLE6=The Old Fat Robin
TTITLE7=Superstar in France
EXTD=
EXTT0=
EXTT1=
EXTT2=
EXTT3=
EXTT4=
EXTT5=
EXTT6=
EXTT7=
PLAYORDER=
